<mxfile host="app.diagrams.net" modified="2020-12-04T10:53:58.043Z" agent="5.0 (Windows NT 10.0; Win64; x64) AppleWebKit/537.36 (KHTML, like Gecko) Chrome/87.0.4280.67 Safari/537.36 Edg/87.0.664.52" etag="NFFISqFwzO6HHFaiQilT" version="13.10.8" type="github">
  <diagram id="Gg06lcGDnV6vHsZHoUL1" name="Page-1">
    <mxGraphModel dx="1673" dy="1075" grid="1" gridSize="10" guides="1" tooltips="1" connect="1" arrows="1" fold="1" page="1" pageScale="1" pageWidth="827" pageHeight="1169" math="0" shadow="0">
      <root>
        <mxCell id="0" />
        <mxCell id="1" parent="0" />
        <mxCell id="oG-_44SpSADh--MzX14M-1" value="" style="ellipse;whiteSpace=wrap;html=1;aspect=fixed;" vertex="1" parent="1">
          <mxGeometry x="10" y="575" width="80" height="80" as="geometry" />
        </mxCell>
        <mxCell id="oG-_44SpSADh--MzX14M-3" value="" style="ellipse;whiteSpace=wrap;html=1;aspect=fixed;" vertex="1" parent="1">
          <mxGeometry x="240" y="680" width="80" height="80" as="geometry" />
        </mxCell>
        <mxCell id="oG-_44SpSADh--MzX14M-5" value="A" style="text;html=1;strokeColor=none;fillColor=none;align=center;verticalAlign=middle;whiteSpace=wrap;rounded=0;" vertex="1" parent="1">
          <mxGeometry x="350" y="525" width="40" height="20" as="geometry" />
        </mxCell>
        <mxCell id="oG-_44SpSADh--MzX14M-6" value="" style="ellipse;whiteSpace=wrap;html=1;aspect=fixed;" vertex="1" parent="1">
          <mxGeometry x="480" y="495" width="80" height="80" as="geometry" />
        </mxCell>
        <mxCell id="oG-_44SpSADh--MzX14M-7" value="B" style="text;html=1;strokeColor=none;fillColor=none;align=center;verticalAlign=middle;whiteSpace=wrap;rounded=0;" vertex="1" parent="1">
          <mxGeometry x="150" y="710" width="40" height="20" as="geometry" />
        </mxCell>
        <mxCell id="oG-_44SpSADh--MzX14M-8" value="C" style="text;html=1;strokeColor=none;fillColor=none;align=center;verticalAlign=middle;whiteSpace=wrap;rounded=0;" vertex="1" parent="1">
          <mxGeometry x="360" y="710" width="40" height="20" as="geometry" />
        </mxCell>
        <mxCell id="oG-_44SpSADh--MzX14M-10" value="" style="ellipse;whiteSpace=wrap;html=1;aspect=fixed;" vertex="1" parent="1">
          <mxGeometry x="747" y="680" width="80" height="80" as="geometry" />
        </mxCell>
        <mxCell id="oG-_44SpSADh--MzX14M-11" value="" style="ellipse;whiteSpace=wrap;html=1;aspect=fixed;" vertex="1" parent="1">
          <mxGeometry x="750" y="495" width="80" height="80" as="geometry" />
        </mxCell>
        <mxCell id="oG-_44SpSADh--MzX14M-12" value="" style="endArrow=none;html=1;exitX=1;exitY=0.5;exitDx=0;exitDy=0;entryX=0;entryY=0.5;entryDx=0;entryDy=0;" edge="1" parent="1" source="oG-_44SpSADh--MzX14M-3" target="oG-_44SpSADh--MzX14M-8">
          <mxGeometry width="50" height="50" relative="1" as="geometry">
            <mxPoint x="330" y="840" as="sourcePoint" />
            <mxPoint x="380" y="790" as="targetPoint" />
          </mxGeometry>
        </mxCell>
        <mxCell id="oG-_44SpSADh--MzX14M-13" value="" style="endArrow=none;html=1;entryX=0;entryY=0.5;entryDx=0;entryDy=0;endFill=0;" edge="1" parent="1" target="oG-_44SpSADh--MzX14M-21">
          <mxGeometry width="50" height="50" relative="1" as="geometry">
            <mxPoint x="400" y="720" as="sourcePoint" />
            <mxPoint x="460" y="720" as="targetPoint" />
          </mxGeometry>
        </mxCell>
        <mxCell id="oG-_44SpSADh--MzX14M-14" value="D" style="text;html=1;strokeColor=none;fillColor=none;align=center;verticalAlign=middle;whiteSpace=wrap;rounded=0;" vertex="1" parent="1">
          <mxGeometry x="610" y="525" width="40" height="20" as="geometry" />
        </mxCell>
        <mxCell id="oG-_44SpSADh--MzX14M-17" value="" style="endArrow=classic;html=1;exitX=1;exitY=0.5;exitDx=0;exitDy=0;" edge="1" parent="1" source="oG-_44SpSADh--MzX14M-5" target="oG-_44SpSADh--MzX14M-6">
          <mxGeometry width="50" height="50" relative="1" as="geometry">
            <mxPoint x="350" y="550" as="sourcePoint" />
            <mxPoint x="400" y="500" as="targetPoint" />
          </mxGeometry>
        </mxCell>
        <mxCell id="oG-_44SpSADh--MzX14M-18" value="" style="endArrow=none;html=1;exitX=1;exitY=0.5;exitDx=0;exitDy=0;entryX=0;entryY=0.5;entryDx=0;entryDy=0;" edge="1" parent="1" source="oG-_44SpSADh--MzX14M-1" target="oG-_44SpSADh--MzX14M-5">
          <mxGeometry width="50" height="50" relative="1" as="geometry">
            <mxPoint x="200" y="620" as="sourcePoint" />
            <mxPoint x="250" y="570" as="targetPoint" />
          </mxGeometry>
        </mxCell>
        <mxCell id="oG-_44SpSADh--MzX14M-19" value="" style="endArrow=none;html=1;exitX=1;exitY=0.5;exitDx=0;exitDy=0;entryX=0;entryY=0.5;entryDx=0;entryDy=0;" edge="1" parent="1" source="oG-_44SpSADh--MzX14M-6" target="oG-_44SpSADh--MzX14M-14">
          <mxGeometry width="50" height="50" relative="1" as="geometry">
            <mxPoint x="550" y="680" as="sourcePoint" />
            <mxPoint x="600" y="630" as="targetPoint" />
          </mxGeometry>
        </mxCell>
        <mxCell id="oG-_44SpSADh--MzX14M-20" value="" style="endArrow=classic;html=1;exitX=1;exitY=0.5;exitDx=0;exitDy=0;entryX=0;entryY=0.5;entryDx=0;entryDy=0;" edge="1" parent="1" source="oG-_44SpSADh--MzX14M-14" target="oG-_44SpSADh--MzX14M-11">
          <mxGeometry width="50" height="50" relative="1" as="geometry">
            <mxPoint x="610" y="670" as="sourcePoint" />
            <mxPoint x="660" y="620" as="targetPoint" />
          </mxGeometry>
        </mxCell>
        <mxCell id="oG-_44SpSADh--MzX14M-21" value="" style="ellipse;whiteSpace=wrap;html=1;aspect=fixed;" vertex="1" parent="1">
          <mxGeometry x="460" y="680" width="80" height="80" as="geometry" />
        </mxCell>
        <mxCell id="oG-_44SpSADh--MzX14M-22" value="" style="endArrow=classic;dashed=1;html=1;strokeWidth=2;entryX=0.5;entryY=1;entryDx=0;entryDy=0;exitX=0.5;exitY=0;exitDx=0;exitDy=0;endFill=1;" edge="1" parent="1" source="oG-_44SpSADh--MzX14M-21" target="oG-_44SpSADh--MzX14M-6">
          <mxGeometry width="50" height="50" relative="1" as="geometry">
            <mxPoint x="460" y="660" as="sourcePoint" />
            <mxPoint x="510" y="610" as="targetPoint" />
          </mxGeometry>
        </mxCell>
        <mxCell id="oG-_44SpSADh--MzX14M-23" value="" style="endArrow=classic;html=1;entryX=0;entryY=0.5;entryDx=0;entryDy=0;exitX=1;exitY=0.5;exitDx=0;exitDy=0;" edge="1" parent="1" source="oG-_44SpSADh--MzX14M-25" target="oG-_44SpSADh--MzX14M-10">
          <mxGeometry width="50" height="50" relative="1" as="geometry">
            <mxPoint x="400" y="750" as="sourcePoint" />
            <mxPoint x="450" y="700" as="targetPoint" />
          </mxGeometry>
        </mxCell>
        <mxCell id="oG-_44SpSADh--MzX14M-24" value="" style="endArrow=classic;html=1;exitX=1;exitY=0.5;exitDx=0;exitDy=0;entryX=0;entryY=0.5;entryDx=0;entryDy=0;" edge="1" parent="1" source="oG-_44SpSADh--MzX14M-1" target="oG-_44SpSADh--MzX14M-3">
          <mxGeometry width="50" height="50" relative="1" as="geometry">
            <mxPoint x="70" y="730" as="sourcePoint" />
            <mxPoint x="120" y="680" as="targetPoint" />
          </mxGeometry>
        </mxCell>
        <mxCell id="oG-_44SpSADh--MzX14M-25" value="F" style="text;html=1;strokeColor=none;fillColor=none;align=center;verticalAlign=middle;whiteSpace=wrap;rounded=0;" vertex="1" parent="1">
          <mxGeometry x="600" y="710" width="40" height="20" as="geometry" />
        </mxCell>
        <mxCell id="oG-_44SpSADh--MzX14M-26" value="" style="endArrow=none;html=1;entryX=0;entryY=0.5;entryDx=0;entryDy=0;exitX=1;exitY=0.5;exitDx=0;exitDy=0;endFill=0;" edge="1" parent="1" source="oG-_44SpSADh--MzX14M-21" target="oG-_44SpSADh--MzX14M-25">
          <mxGeometry width="50" height="50" relative="1" as="geometry">
            <mxPoint x="539.9999999999873" y="720" as="sourcePoint" />
            <mxPoint x="747" y="720" as="targetPoint" />
          </mxGeometry>
        </mxCell>
        <mxCell id="oG-_44SpSADh--MzX14M-27" value="" style="endArrow=classic;html=1;entryX=0;entryY=1;entryDx=0;entryDy=0;exitX=1;exitY=1;exitDx=0;exitDy=0;" edge="1" parent="1" source="oG-_44SpSADh--MzX14M-32" target="oG-_44SpSADh--MzX14M-42">
          <mxGeometry width="50" height="50" relative="1" as="geometry">
            <mxPoint x="340" y="830" as="sourcePoint" />
            <mxPoint x="860" y="990" as="targetPoint" />
          </mxGeometry>
        </mxCell>
        <mxCell id="oG-_44SpSADh--MzX14M-28" value="" style="ellipse;whiteSpace=wrap;html=1;aspect=fixed;" vertex="1" parent="1">
          <mxGeometry x="980" y="640" width="80" height="80" as="geometry" />
        </mxCell>
        <mxCell id="oG-_44SpSADh--MzX14M-30" value="" style="endArrow=classic;html=1;exitX=1;exitY=0;exitDx=0;exitDy=0;entryX=0;entryY=0.5;entryDx=0;entryDy=0;" edge="1" parent="1" source="oG-_44SpSADh--MzX14M-34" target="oG-_44SpSADh--MzX14M-28">
          <mxGeometry width="50" height="50" relative="1" as="geometry">
            <mxPoint x="860" y="700" as="sourcePoint" />
            <mxPoint x="910" y="650" as="targetPoint" />
          </mxGeometry>
        </mxCell>
        <mxCell id="oG-_44SpSADh--MzX14M-31" value="" style="endArrow=classic;html=1;exitX=1;exitY=1;exitDx=0;exitDy=0;entryX=0;entryY=1;entryDx=0;entryDy=0;" edge="1" parent="1" source="oG-_44SpSADh--MzX14M-36" target="oG-_44SpSADh--MzX14M-42">
          <mxGeometry width="50" height="50" relative="1" as="geometry">
            <mxPoint x="810" y="850" as="sourcePoint" />
            <mxPoint x="989.9999999999868" y="890" as="targetPoint" />
          </mxGeometry>
        </mxCell>
        <mxCell id="oG-_44SpSADh--MzX14M-32" value="I" style="text;html=1;strokeColor=none;fillColor=none;align=center;verticalAlign=middle;whiteSpace=wrap;rounded=0;" vertex="1" parent="1">
          <mxGeometry x="430" y="820" width="40" height="20" as="geometry" />
        </mxCell>
        <mxCell id="oG-_44SpSADh--MzX14M-33" value="" style="endArrow=none;html=1;entryX=0;entryY=0.5;entryDx=0;entryDy=0;exitX=1;exitY=1;exitDx=0;exitDy=0;endFill=0;" edge="1" parent="1" source="oG-_44SpSADh--MzX14M-3" target="oG-_44SpSADh--MzX14M-32">
          <mxGeometry width="50" height="50" relative="1" as="geometry">
            <mxPoint x="308.284271247471" y="748.284271247471" as="sourcePoint" />
            <mxPoint x="569.9999999999995" y="910" as="targetPoint" />
          </mxGeometry>
        </mxCell>
        <mxCell id="oG-_44SpSADh--MzX14M-34" value="G" style="text;html=1;strokeColor=none;fillColor=none;align=center;verticalAlign=middle;whiteSpace=wrap;rounded=0;" vertex="1" parent="1">
          <mxGeometry x="880" y="680" width="40" height="20" as="geometry" />
        </mxCell>
        <mxCell id="oG-_44SpSADh--MzX14M-35" value="" style="endArrow=none;html=1;exitX=1;exitY=0;exitDx=0;exitDy=0;entryX=0;entryY=0.5;entryDx=0;entryDy=0;endFill=0;" edge="1" parent="1" source="oG-_44SpSADh--MzX14M-10" target="oG-_44SpSADh--MzX14M-34">
          <mxGeometry width="50" height="50" relative="1" as="geometry">
            <mxPoint x="815.2842712474621" y="691.7157287525381" as="sourcePoint" />
            <mxPoint x="959.9999999999995" y="640" as="targetPoint" />
          </mxGeometry>
        </mxCell>
        <mxCell id="oG-_44SpSADh--MzX14M-36" value="H" style="text;html=1;strokeColor=none;fillColor=none;align=center;verticalAlign=middle;whiteSpace=wrap;rounded=0;" vertex="1" parent="1">
          <mxGeometry x="930" y="780" width="40" height="20" as="geometry" />
        </mxCell>
        <mxCell id="oG-_44SpSADh--MzX14M-37" value="" style="endArrow=none;html=1;exitX=1;exitY=1;exitDx=0;exitDy=0;entryX=0;entryY=0.5;entryDx=0;entryDy=0;startArrow=none;startFill=0;endFill=0;" edge="1" parent="1" source="oG-_44SpSADh--MzX14M-10" target="oG-_44SpSADh--MzX14M-36">
          <mxGeometry width="50" height="50" relative="1" as="geometry">
            <mxPoint x="815.2842712474621" y="748.2842712474619" as="sourcePoint" />
            <mxPoint x="959.9999999999995" y="840" as="targetPoint" />
          </mxGeometry>
        </mxCell>
        <mxCell id="oG-_44SpSADh--MzX14M-39" value="" style="endArrow=classic;html=1;exitX=1;exitY=0.5;exitDx=0;exitDy=0;entryX=0;entryY=0;entryDx=0;entryDy=0;" edge="1" parent="1" source="oG-_44SpSADh--MzX14M-40" target="oG-_44SpSADh--MzX14M-28">
          <mxGeometry width="50" height="50" relative="1" as="geometry">
            <mxPoint x="870" y="560" as="sourcePoint" />
            <mxPoint x="920" y="510" as="targetPoint" />
          </mxGeometry>
        </mxCell>
        <mxCell id="oG-_44SpSADh--MzX14M-40" value="E" style="text;html=1;strokeColor=none;fillColor=none;align=center;verticalAlign=middle;whiteSpace=wrap;rounded=0;" vertex="1" parent="1">
          <mxGeometry x="910" y="564" width="40" height="20" as="geometry" />
        </mxCell>
        <mxCell id="oG-_44SpSADh--MzX14M-41" value="" style="endArrow=none;html=1;exitX=1;exitY=0.5;exitDx=0;exitDy=0;entryX=0;entryY=0.5;entryDx=0;entryDy=0;endFill=0;" edge="1" parent="1" source="oG-_44SpSADh--MzX14M-11" target="oG-_44SpSADh--MzX14M-40">
          <mxGeometry width="50" height="50" relative="1" as="geometry">
            <mxPoint x="830.0000000000127" y="535" as="sourcePoint" />
            <mxPoint x="999.9999999999868" y="505" as="targetPoint" />
          </mxGeometry>
        </mxCell>
        <mxCell id="oG-_44SpSADh--MzX14M-42" value="" style="ellipse;whiteSpace=wrap;html=1;aspect=fixed;" vertex="1" parent="1">
          <mxGeometry x="1230" y="820" width="80" height="80" as="geometry" />
        </mxCell>
        <mxCell id="oG-_44SpSADh--MzX14M-43" value="" style="endArrow=classic;html=1;entryX=0;entryY=0.5;entryDx=0;entryDy=0;exitX=0.75;exitY=1;exitDx=0;exitDy=0;" edge="1" parent="1" source="oG-_44SpSADh--MzX14M-44" target="oG-_44SpSADh--MzX14M-42">
          <mxGeometry width="50" height="50" relative="1" as="geometry">
            <mxPoint x="1000" y="380" as="sourcePoint" />
            <mxPoint x="1050" y="330" as="targetPoint" />
          </mxGeometry>
        </mxCell>
        <mxCell id="oG-_44SpSADh--MzX14M-44" value="J" style="text;html=1;strokeColor=none;fillColor=none;align=center;verticalAlign=middle;whiteSpace=wrap;rounded=0;" vertex="1" parent="1">
          <mxGeometry x="1120" y="760" width="40" height="20" as="geometry" />
        </mxCell>
        <mxCell id="oG-_44SpSADh--MzX14M-45" value="" style="endArrow=none;html=1;exitX=1;exitY=0.5;exitDx=0;exitDy=0;entryX=0;entryY=0.25;entryDx=0;entryDy=0;endFill=0;" edge="1" parent="1" source="oG-_44SpSADh--MzX14M-28" target="oG-_44SpSADh--MzX14M-44">
          <mxGeometry width="50" height="50" relative="1" as="geometry">
            <mxPoint x="1080.0000000000127" y="505" as="sourcePoint" />
            <mxPoint x="1130" y="505" as="targetPoint" />
          </mxGeometry>
        </mxCell>
      </root>
    </mxGraphModel>
  </diagram>
</mxfile>
